General                          : ChattChitto RG - Movies [R2L]
==========
Complete name                    : The Switch 2010 720p BDRip H264 [ChattChitto RG]
Format                           : MPEG-4
Format profile                   : Base Media
Codec ID                         : isom
File size                        : 1.88 GiB
Duration                         : 1h 41mn
Overall bit rate                 : 2 657 Kbps
Encoded date                     : UTC 2011-01-15 14:03:29

Video
==========
ID                               : 1
Format                           : AVC
Format/Info                      : Advanced Video Codec
Format profile                   : High@L4.0
Format settings, CABAC           : Yes
Format settings, ReFrames        : 4 frames
Codec ID                         : avc1
Codec ID/Info                    : Advanced Video Coding
Duration                         : 1h 41mn
Bit rate mode                    : Variable
Bit rate                         : 2 300 Kbps
Maximum bit rate                 : 10.3 Mbps
Width                            : 1 280 pixels
Height                           : 528 pixels
Display aspect ratio             : 2.40:1
Frame rate mode                  : Constant
Frame rate                       : 23.976 fps
Resolution                       : 24 bits
Colorimetry                      : 4:2:0
Scan type                        : Progressive
Bits/(Pixel*Frame)               : 0.142
Stream size                      : 1.63 GiB (87%)
Writing library                  : x264 core 84 r1400M 20fa784
Encoded date                     : UTC 2011-01-15 10:47:55

Audio
==========
ID                               : 2
Format                           : AAC
Format/Info                      : Advanced Audio Codec
Format version                   : Version 4
Format profile                   : LC
Format settings, SBR             : No
Codec ID                         : 40
Duration                         : 1h 41mn
Bit rate mode                    : Variable
Bit rate                         : 352.8 Kbps
Maximum bit rate                 : 417 Kbps
Channel(s)                       : 6 channels
Channel positions                : Front: L C R, Rear: L R, LFE
Sampling rate                    : 48.0 KHz
Resolution                       : 16 bits
Stream size                      : 256 MiB (13%)
Encoded date                     : UTC 2011-01-15 14:04:24

Subtitles                        : English | French | Spanish


----------------------------------------------------
IMDB Link: http://www.imdb.com/title/tt0889573/
----------------------------------------------------



Screen Shots:
==============    
http://bayimg.com/bADEdaAdf 
http://bayimg.com/bAdefAAdF 
http://bayimg.com/BadeHAAdf 
http://bayimg.com/BAdeJAaDF 
http://bayimg.com/bADEMaADf



ScreenShots Comparison:
=========================  
http://screenshotcomparison.com/comparison/20223



Plot:
======
Kassie is a smart, fun-loving single woman who despite her slightly neurotic best friend Wally's objections, decides it's time to have a baby -even if it means doing it by herself... with a little help from a charming sperm donor. But Kassie's plans go awry because of a last-minute switch that isn't discovered until seven years later when Wally finally gets acquainted with Kassie's precocious - though slightly neurotic - son. 



Release Info:
==============
original name .... : The Switch 2010 720p BDRip H264 [ChattChitto RG]
ripper.............: Recalled2Life (R2L)
encoder............: Recalled2Life (R2L)
video codec........: H264/.MP4
video bitrate......: 2300 Kbps
audio codec........: AAC-LC
aspect ratio.......: 2.40:1
resolution.........: 1280 x 528
genre..............: Comedy | Drama | Romance
runtime............: 1h 41mn
language...........: English
rating.............: PG-13
subtitles..........: English | French | Spanish
sample.............: Yes [14.6 MB]
2ch Audio..........: 2ch Audio for XBox Viewers  
Compatibility .....: XBox | PS3 | WD Live 



Source:
========
The Switch 2010 Blu-Ray VC-1/DTS-HD - R2L [26.6 GB] Welcome!



Notes:
=======
ChattChitto RG Encourages Burning this Film with ConvertXtoDVD.
XBox 360 | PS3 | WD Live - Compatible
Enhanced and Filtered for your viewing pleasure ;)